<svg width="22" height="22" viewBox="0 0 22 22" fill="none" xmlns="http://www.w3.org/2000/svg">
<path d="M5.65587 16.5C5.84526 15.9632 6.19647 15.4984 6.66109 15.1697C7.12571 14.8409 7.68087 14.6644 8.25004 14.6644C8.81921 14.6644 9.37437 14.8409 9.83899 15.1697C10.3036 15.4984 10.6548 15.9632 10.8442 16.5H20.1667V18.3333H10.8442C10.6548 18.87 10.3036 19.3348 9.83899 19.6636C9.37437 19.9923 8.81921 20.1689 8.25004 20.1689C7.68087 20.1689 7.12571 19.9923 6.66109 19.6636C6.19647 19.3348 5.84526 18.87 5.65587 18.3333H1.83337V16.5H5.65587ZM11.1559 10.0833C11.3453 9.54656 11.6965 9.08178 12.1611 8.75302C12.6257 8.42427 13.1809 8.24772 13.75 8.24772C14.3192 8.24772 14.8744 8.42427 15.339 8.75302C15.8036 9.08178 16.1548 9.54656 16.3442 10.0833H20.1667V11.9166H16.3442C16.1548 12.4534 15.8036 12.9182 15.339 13.2469C14.8744 13.5757 14.3192 13.7522 13.75 13.7522C13.1809 13.7522 12.6257 13.5757 12.1611 13.2469C11.6965 12.9182 11.3453 12.4534 11.1559 11.9166H1.83337V10.0833H11.1559ZM5.65587 3.66663C5.84526 3.1299 6.19647 2.66512 6.66109 2.33636C7.12571 2.0076 7.68087 1.83105 8.25004 1.83105C8.81921 1.83105 9.37437 2.0076 9.83899 2.33636C10.3036 2.66512 10.6548 3.1299 10.8442 3.66663H20.1667V5.49997H10.8442C10.6548 6.03671 10.3036 6.50149 9.83899 6.83024C9.37437 7.159 8.81921 7.33555 8.25004 7.33555C7.68087 7.33555 7.12571 7.159 6.66109 6.83024C6.19647 6.50149 5.84526 6.03671 5.65587 5.49997H1.83337V3.66663H5.65587ZM8.25004 5.49997C8.49316 5.49997 8.72631 5.40339 8.89822 5.23148C9.07013 5.05957 9.16671 4.82642 9.16671 4.5833C9.16671 4.34019 9.07013 4.10703 8.89822 3.93512C8.72631 3.76321 8.49316 3.66663 8.25004 3.66663C8.00693 3.66663 7.77377 3.76321 7.60186 3.93512C7.42995 4.10703 7.33337 4.34019 7.33337 4.5833C7.33337 4.82642 7.42995 5.05957 7.60186 5.23148C7.77377 5.40339 8.00693 5.49997 8.25004 5.49997ZM13.75 11.9166C13.9932 11.9166 14.2263 11.8201 14.3982 11.6481C14.5701 11.4762 14.6667 11.2431 14.6667 11C14.6667 10.7569 14.5701 10.5237 14.3982 10.3518C14.2263 10.1799 13.9932 10.0833 13.75 10.0833C13.5069 10.0833 13.2738 10.1799 13.1019 10.3518C12.93 10.5237 12.8334 10.7569 12.8334 11C12.8334 11.2431 12.93 11.4762 13.1019 11.6481C13.2738 11.8201 13.5069 11.9166 13.75 11.9166ZM8.25004 18.3333C8.49316 18.3333 8.72631 18.2367 8.89822 18.0648C9.07013 17.8929 9.16671 17.6597 9.16671 17.4166C9.16671 17.1735 9.07013 16.9404 8.89822 16.7685C8.72631 16.5965 8.49316 16.5 8.25004 16.5C8.00693 16.5 7.77377 16.5965 7.60186 16.7685C7.42995 16.9404 7.33337 17.1735 7.33337 17.4166C7.33337 17.6597 7.42995 17.8929 7.60186 18.0648C7.77377 18.2367 8.00693 18.3333 8.25004 18.3333Z" fill="#5A5A5A"/>
</svg>
